<?xml version="1.0" encoding="UTF-8" standalone="no"?>
<!-- Created with Inkscape (http://www.inkscape.org/) -->

<svg
   xmlns:dc="http://purl.org/dc/elements/1.1/"
   xmlns:cc="http://creativecommons.org/ns#"
   xmlns:rdf="http://www.w3.org/1999/02/22-rdf-syntax-ns#"
   xmlns:svg="http://www.w3.org/2000/svg"
   xmlns="http://www.w3.org/2000/svg"
   version="1.1"
   width="210mm"
   height="297mm"
   id="svg2">
  <defs
     id="defs4" />
  <metadata
     id="metadata7">
    <rdf:RDF>
      <cc:Work
         rdf:about="">
        <dc:format>image/svg+xml</dc:format>
        <dc:type
           rdf:resource="http://purl.org/dc/dcmitype/StillImage" />
        <dc:title></dc:title>
      </cc:Work>
    </rdf:RDF>
  </metadata>
  <g
     id="layer2"
     style="display:inline">
    <path
       d="M 304.81353,373.53967 L 285.87317,337.17418 L 273.75134,343.74017 L 228.79955,259.1399 L 256.07367,244.24015 L 243.95184,222.01679 L 276.7818,205.09673 L 289.15617,226.56248"
       id="path3007"
       style="fill:none;stroke:#000000;stroke-width:1px;stroke-linecap:butt;stroke-linejoin:miter;stroke-opacity:1;display:inline" />
    <path
       d="M 323.24881,48.27055 L 406.08132,5.8441402 L 452.54834,97.01041 L 444.46712,101.30356 L 448.76027,112.66778 L 468.2057,102.06117 L 510.63211,184.38861 L 428.05214,228.58278 L 386.88842,147.51804 L 400.77802,140.44697 L 391.18157,122.01169 L 367.44299,134.63859 z"
       id="path3009"
       style="fill:none;stroke:#000000;stroke-width:1px;stroke-linecap:butt;stroke-linejoin:miter;stroke-opacity:1;display:inline" />
    <path
       d="M 510.37957,183.88353 L 551.79583,266.21096 L 542.45192,272.01934 L 549.27045,285.90894 L 558.36182,281.11071 L 599.77807,364.70084 L 517.1981,407.12724 L 475.78185,323.78966 L 500.02551,311.16275 L 493.20698,298.78838 L 469.97347,310.91021 L 428.05214,228.33024"
       id="path3011"
       style="fill:none;stroke:#000000;stroke-width:1px;stroke-linecap:butt;stroke-linejoin:miter;stroke-opacity:1;display:inline" />
    <path
       d="M 599.77807,364.19576 L 642.20448,448.03842 L 623.01158,458.13995 L 628.81996,469.50416 L 636.90118,465.71609 L 681.34789,553.34682 L 598.01031,595.77323 L 553.56359,508.1425 L 576.7971,496.02067 L 570.73619,483.6463 L 560.38212,490.21229 L 517.1981,407.37978"
       id="path3013"
       style="fill:none;stroke:#000000;stroke-width:1px;stroke-linecap:butt;stroke-linejoin:miter;stroke-opacity:1;display:inline" />
    <path
       d="M 46.972093,280.3531 L 106.06602,300.80869 L 99.500021,319.74905 L 178.03939,347.27571 L 152.02796,437.17928 L 11.616754,387.42927 z"
       id="path3015"
       style="fill:none;stroke:#000000;stroke-width:1px;stroke-linecap:butt;stroke-linejoin:miter;stroke-opacity:1;display:inline" />
    <path
       d="M 46.719555,280.3531 L 20.960665,271.00919 L 54.548237,164.43809 L 143.6942,120.24392 L 137.38075,106.8594 L 227.03178,62.66523 L 254.05336,120.24392 L 262.63966,115.69823 L 282.33764,157.61956 L 241.17392,176.30739 L 230.31478,154.84165 L 183.84776,178.58023 L 193.69675,200.04597 L 129.8046,232.37085 L 105.3084,300.55615"
       id="path3017"
       style="fill:none;stroke:#000000;stroke-width:1px;stroke-linecap:butt;stroke-linejoin:miter;stroke-opacity:1;display:inline" />
    <path
       d="M 289.15617,227.32009 L 313.14729,215.19826"
       id="path2999"
       style="fill:none;stroke:#000000;stroke-width:1px;stroke-linecap:butt;stroke-linejoin:miter;stroke-opacity:1;display:inline" />
    <path
       d="M 358.35161,301.5663 L 313.14729,214.94572"
       id="path3001"
       style="fill:none;stroke:#000000;stroke-width:1px;stroke-linecap:butt;stroke-linejoin:miter;stroke-opacity:1;display:inline" />
    <path
       d="M 358.35161,301.31376 L 351.53308,305.10184 L 356.07877,313.18306 L 363.40238,308.38483 L 377.79705,335.15387 L 305.31861,373.28713"
       id="path3003"
       style="fill:none;stroke:#000000;stroke-width:1px;stroke-linecap:butt;stroke-linejoin:miter;stroke-opacity:1;display:inline" />
  </g>
</svg>
